<svg version="1.1" xmlns="http://www.w3.org/2000/svg" viewBox="0 0 1333 434" width="1333" height="434">
  <style type="text/css">
	path, ellipse, circle {fill:#fff;stroke-width:0;}
	line { stroke: #fff; stroke-width: 6; }
</style>
  <path d="M235.5,178.5c24-30,27-83,25-102s-11-22-15-22s-16-1-24-5s-7-15-25-16s-41,17-48,23c-9,5-25,9-30,21s8,35,10,40s20,30,26,39  c-15-12-37-34-45-40s-29-11-41,10c-28,5-43,19-44,27s7,22,15,30c-6,14-10,22-8,33s13,23,37,25s75-7,87-11c-25,10-60,30-69,37  s-33,39,8,56c0,20,13,38,38,32c8,24,22,34,46,22c16,19,87,53,77-81c35,74,57,67,60,66s15-5,22-3s37,9,54-22c-6-17-8-16-6-26  s6-15,6-29s-16-27-44-34s-41-10-55-19c26,6,132,25,112-45c23-18-3-45-25-47c1-21-40-66-96,33c23-12,42-12,42-12s-36,14-47,23  c20-2,48-14,70-8c-19,7-69,15-79,24c16,5,47-6,66,5c-30-1-73,1-85,18c14,9,60,20,67,44c-26-20-55-30-69-32c6,9,35,31,38,46  c-24-19-25-32-54-44c-11,11-13,40-14,60c-7-21-5-42-3-59c-13,6-38,50-43,64c-1-19,19-58,33-67c-19,0-46,26-57,38c0-22,51-48,59-52  c-15-7-81-31-89-41c21,2,53,21,77,21c-7-15-54-32-68-36c27-6,68,20,77,30c2-16-17-39-28-53c20,12,32,33,37,41c0-18-17-52-30-68  c23,14,36,44,38,61c6-19,2-47-11-73C234.5,117.5,232.5,148.5,235.5,178.5z" />
  <path d="M317.5,48.5c0,0-39,110-90,158c-12,12-7,28,15,8S318.5,87.5,317.5,48.5z" />
  <path d="M338.5,67.5c0,4.97-4.03,9-9,9s-7-4.03-7-9s3.03-6,8-6S338.5,62.53,338.5,67.5z" />
  <ellipse cx="325.5" cy="23.5" rx="8" ry="9" />
  <ellipse cx="287" cy="78" rx="8.5" ry="7.5" />
  <circle cx="327" cy="90" r="7.5" />
  <circle cx="296.5" cy="58.5" r="8" />
  <ellipse cx="305.5" cy="37.5" rx="9" ry="7" />
  <circle cx="334.5" cy="45.5" r="8" />
  <path d="M534.01,164.57c-3-11.4-7-24.2-23.4-24.2c-14.8,0-20.6,11-20.6,20.2c0,14,9.2,20,23.2,27.2c13.4,6.6,32.2,14.6,32.2,36   c0,19.8-16.4,34.8-40.4,34.8c-7.8,0-13.8-1.6-18.2-3c-4.2-1.2-7-2.8-8.6-3.6c-1.6-4.2-3.8-19-5-28.4l5.8-1.4   c3,11.2,10.4,29.4,29.4,29.4c14.4,0,22.6-8.8,22.6-22.4c0-14-10.4-20.2-24.2-27.6c-10.8-5.8-30.2-14-30.2-35.2   c0-17.6,14-32.6,37.4-32.6c7.2,0,14.4,1.4,23,4.2c0.6,6.6,1.6,13.6,3,25.8L534.01,164.57z" />
  <path d="M609.41,256.17v-5.2c11-1,12.8-2.2,12.8-14.4v-30c0-15.4-5.8-23.4-19-23.4c-7.8,0-15.4,4-20.6,10.2v43.2   c0,12,1,13.4,12.8,14.4v5.2h-39.2v-5.2c11.6-1,13.4-2.2,13.4-14.4v-87c0-11.6-0.6-12.6-13.4-13.6v-4.8c9-1.4,19.8-4.4,26.4-6.6   v61.6c6.6-6.4,16.8-13.4,26.8-13.4c15,0,25.8,9.6,25.8,31.6v32.4c0,12.2,1.4,13.2,12.6,14.2v5.2H609.41z" />
  <path d="M717.2,258.37c-2.2,0-6.2-1.6-8-3.4c-2.6-2.6-3.8-5.2-4.4-8.4c-7.8,5-16.4,11.8-22.8,11.8c-12.6,0-21.8-10.8-21.8-22.8   c0-8.8,4.8-15.2,15.4-18.6c11.2-3.8,24.8-9,28.8-12v-2.6c0-13.6-6.8-21.2-16.4-21.2c-4,0-7,1.6-8.8,3.8c-2.4,2.6-3.8,6.4-5.6,11.8   c-0.6,2.8-2.6,4-5.2,4c-3,0-7.6-3.4-7.6-7.8c0-2.6,2.4-4.8,6-7.4c4.6-3.4,16.4-10.6,27.2-12.8c5.4,0,11.2,1.6,15,5   c6,5.4,8,12.8,8,22.2v35c0,8.4,3.2,11.2,6.6,11.2c2.2,0,5-1,6.8-2.2l2,5.4L717.2,258.37z M704.4,211.57l-18.2,8.2   c-7.6,3.2-11.8,6.8-11.8,13.6c0,9.4,7.6,14,13.6,14c5.2,0,12.8-4,16.4-7.4V211.57z" />
  <path d="M791.2,256.17v-5.2c11.4-1.2,12.8-2.8,12.8-15.2v-30.6c0-13-4.4-21.8-17.6-21.8c-8,0-15.8,5-21.6,10.4v42.6   c0,13,1,13.4,12.8,14.6v5.2h-39.4v-5.2c12.6-1.2,13.6-2.4,13.6-14.4v-37.6c0-12-1.2-12.8-11.4-14.4v-4.8c8.8-1.6,17.2-3.8,24.4-7.6   v14.8c3.6-2.8,7.6-5.4,12.4-8.4c5-3.4,10.4-5.8,15.8-5.8c14.6,0,24,10.2,24,28v35.6c0,12.8,1,13.4,12.2,14.6v5.2H791.2z" />
  <path d="M919.6,176.17c-1.8,3-5.6,8-8.4,9.4l-10.4-0.6c3.4,4,5.4,10.2,5.4,16.6c0,20-16.4,29.8-32.4,29.8c-2.8,0-6.2-0.4-9.4-1   c-2.8,2-6,5.6-6,8.2c0,3.6,3,7,11.2,7c7.4,0,14.2-0.2,20.4-0.2c11.8,0,26.6,3.6,26.6,21.6c0,18.6-21.4,35.6-45.8,35.6   c-20.2,0-31.8-11-32-22c0-3.8,1.4-7.8,4.4-10.6c3.4-3.6,10.8-9.8,15-13c-6.4-2-11.2-6.2-13.6-10c-1.4-2.6-2-5.8-1.8-7.4   c6.8-2.6,12.8-7.6,15.6-11.4c-7.4-3.4-15.6-11.6-15.6-24.6c0-21,19-30.8,33.2-30.8c5.8,0,12.2,1.6,17.4,4.6   c8.8-0.6,17.6-1.6,25-2.8L919.6,176.17z M861.8,261.57c-5.4,4.2-9,9.6-9,15c0,10.2,10.8,16.2,24.4,16.2c18.2,0,27.6-8.6,27.6-20.2   c0-6-3-10.4-8-12.6c-4.6-2.2-10.2-2.6-18.2-2.6C869.6,257.37,865.4,258.57,861.8,261.57z M857.4,200.77c0,14.4,8,24.4,18.4,24.4   c8.6-0.2,16.4-7.8,16.4-22c0-14.8-7.8-24.6-18.4-24.6C865.2,178.57,857.4,186.77,857.4,200.77z" />
  <path d="M954.4,192.37c5.6-9.2,13.4-19.6,22.8-19.6c6.6,0,10.8,4.8,10.8,9c0,3.4-2,6.8-5.6,8.6c-2,0.8-3.6,0.6-4.8-0.4   c-2.6-2.8-4.6-3.8-7.6-3.8c-5.2,0-12,6.4-16,17.4v32.8c0,12.4,0.8,13.6,15.4,14.6v5.2h-41.8v-5.2c12.2-1,13.4-2.2,13.4-14.4v-37.6   c0-12.6-0.8-13.2-11.8-14.4v-4.8c8.6-1.4,16.4-3.8,24.8-7.6v20.2H954.4z" />
  <path d="M997.6,256.17v-5.2c12-1,13.4-2.2,13.4-14.6v-38.2c0-11-0.4-12-12.2-13.6v-4.8c9.4-1.6,17.6-4,25.2-7.4v64   c0,12.4,1.4,13.6,13.4,14.6v5.2H997.6z M1007.4,147.17c0-5.4,4.2-9.4,9.2-9.4s8.8,4,8.8,9.4c0,4.8-3.8,9.2-9,9.2   C1011.6,156.37,1007.4,151.97,1007.4,147.17z" />
  <path d="M1094.79,219.57H1052l2.6-10.4h42.8L1094.79,219.57z" />
  <path d="M1205.59,227.17c-1,5.6-5,23.4-6.8,29h-83.2v-5.8c15.6-0.8,17-2,17-17.6v-73.4c0-15.4-1.2-16.4-16.8-17.6v-5.6h48v5.6   c-15.2,1-17.2,2-17.2,17.6v72.2c0,10,1.2,13.6,4.6,15.6c3.6,2,10.2,2.4,18.2,2.4c10.2,0,16.4-1,20.6-5.6c3.4-3.6,6.8-9.2,9.6-17.8   L1205.59,227.17z" />
  <path d="M1275.99,258.37c-2.2,0-6.2-1.6-8-3.4c-2.6-2.6-3.8-5.2-4.4-8.4c-7.8,5-16.4,11.8-22.8,11.8c-12.6,0-21.8-10.8-21.8-22.8   c0-8.8,4.8-15.2,15.4-18.6c11.2-3.8,24.8-9,28.8-12v-2.6c0-13.6-6.8-21.2-16.4-21.2c-4,0-7,1.6-8.8,3.8c-2.4,2.6-3.8,6.4-5.6,11.8   c-0.6,2.8-2.6,4-5.2,4c-3,0-7.6-3.4-7.6-7.8c0-2.6,2.4-4.8,6-7.4c4.6-3.4,16.4-10.6,27.2-12.8c5.4,0,11.2,1.6,15,5   c6,5.4,8,12.8,8,22.2v35c0,8.4,3.2,11.2,6.6,11.2c2.2,0,5-1,6.8-2.2l2,5.4L1275.99,258.37z M1263.19,211.57l-18.2,8.2   c-7.6,3.2-11.8,6.8-11.8,13.6c0,9.4,7.6,14,13.6,14c5.2,0,12.8-4,16.4-7.4V211.57z" />
  <line class="st0" x1="465" y1="335" x2="1272" y2="335" />
</svg>