<?xml version="1.0" encoding="UTF-8"?>
<svg id="Layer_1" xmlns="http://www.w3.org/2000/svg" version="1.1" viewBox="0 0 450 450">
  <!-- Generator: Adobe Illustrator 29.4.0, SVG Export Plug-In . SVG Version: 2.1.0 Build 152)  -->
  <defs>
    <style>
      .st0 {
        fill: #ffc472;
        stroke: #fff;
        stroke-miterlimit: 10;
      }
    </style>
  </defs>
  <path class="st0" d="M93.04,338.82c77.99-39.26,192.64-104.75,215.87-187.66-2.11-12.11-2.23-25.52-14.31-28.42-4.87-1.17-9.55-2.09-13.82-2.79-32.26,84.25-114.38,163.06-187.74,218.87Z"/>
  <path class="st0" d="M97.21,340.56c95.54-17.49,226.22-52.5,267.75-124.71-.61-7.02-1.64-14.71-3.15-22.45-1.84-9.48-12.3-13.58-23.11-16.89-42.18,81.68-155.59,132.26-241.49,164.05Z"/>
  <path class="st0" d="M213.99,183.54c15.66-26.82,29.88-56.63,36-87.41-3.87-3.26-9.2-6.62-16.59-9.94-23.26-10.44-53.59-.16-69.74,15.99-21.05,21.05-21.23,63.47-40.03,101.02-20.92,41.77-68.93,101.38-48.41,135.71,1.03,1.73,2.11,3.33,3.21,4.82,52.06-47.18,99.25-100.34,135.56-160.2Z"/>
  <path class="st0" d="M379.9,250.32c-64.2,68.2-199.94,88.71-297.29,96.32-.37.28-.75.55-1.12.83,16.41,18.09,39.32,15.05,59.46,13.37,107.62-8.97,236.91-14.05,247.2-73.48,1.41-8.16,1.08-20.43-8.25-37.03Z"/>
</svg>